<?xml version="1.0" encoding="utf-8"?>
<!DOCTYPE svg PUBLIC "-//W3C//DTD SVG 1.0//EN" "http://www.w3.org/TR/2001/REC-SVG-20010904/DTD/svg10.dtd">
<svg version="1.0" xmlns="http://www.w3.org/2000/svg" width="174px" height="164px" viewBox="0 0 174 164" preserveAspectRatio="xMidYMid meet">
 <g fill="#44ff98">
  <path d="M30.4 151.3 l-16.2 -11.6 22.4 -24.8 c19.1 -21.2 22.2 -25 20.7 -25.7 -1 -0.5 -13.9 -6 -28.8 -12.2 -14.8 -6.1 -27.1 -11.3 -27.3 -11.5 -0.2 -0.2 3.5 -7.8 8.3 -16.9 l8.6 -16.5 7.2 3.3 c4 1.9 15.2 7.2 25 12 9.9 4.7 18.1 8.6 18.4 8.6 0.3 0 0.2 -12.6 -0.2 -28 l-0.8 -28 19.8 0 19.8 0 -0.6 28 c-0.4 15.4 -0.4 28 -0.1 28 0.4 0 11.9 -5.4 25.7 -12 13.7 -6.6 25.1 -11.9 25.2 -11.8 1.8 3.5 15.5 33.1 15.3 33.3 -0.2 0.2 -13 5.6 -28.5 12.1 -15.6 6.4 -28.3 12.1 -28.3 12.6 0 0.7 28.2 33.1 40.7 46.9 l2.4 2.6 -15.5 11.2 c-8.5 6.2 -15.7 11.3 -16 11.4 -0.3 0.1 -9.2 -11.7 -19.8 -26.2 -10.6 -14.6 -19.7 -26.6 -20.3 -26.8 -0.5 -0.1 -9.5 11.2 -19.9 25.2 -10.4 14 -19.4 26.1 -20 26.9 -0.9 1.2 -4 -0.7 -17.2 -10.1z"/>
 </g>
</svg>