<?xml version="1.0" encoding="utf-8"?>
<!DOCTYPE svg PUBLIC "-//W3C//DTD SVG 1.0//EN" "http://www.w3.org/TR/2001/REC-SVG-20010904/DTD/svg10.dtd">
<svg version="1.0" xmlns="http://www.w3.org/2000/svg" width="247px" height="247px" viewBox="0 0 247 247" preserveAspectRatio="xMidYMid meet">
 <g fill="#000000">
  <path d="M113.5 245.8 c-58.3 -4.2 -106.3 -51 -112.5 -109.8 -5.9 -56.3 28.2 -110.3 81.3 -128.9 27.4 -9.6 55 -9.6 82.4 0 38.1 13.3 68.2 46.3 78.3 85.9 17 66.9 -25.4 135.4 -93.1 150.5 -10.4 2.2 -24.4 3.1 -36.4 2.3z m33.5 -12.3 c21.9 -4.8 40.3 -14.8 56 -30.5 14.5 -14.4 23.9 -30.8 29.7 -51.7 2.6 -9.1 2.8 -11.2 2.8 -28.3 0 -17.1 -0.2 -19.2 -2.8 -28.5 -4.6 -16.5 -13.4 -33.1 -24.7 -46.3 l-3.6 -4.1 -37.7 40.4 -37.7 40.4 0 39.6 0 39.5 13.3 0 c14.7 0 18 0.9 18.5 5.2 0.6 4.8 -2.5 5.8 -18 5.8 l-13.8 0 0 6.2 c0 6.8 -1.7 9.8 -5.6 9.8 -4 0 -5.4 -2.5 -5.4 -9.6 l0 -6.4 -30.2 0 -30.3 0.1 4 2.5 c15.2 9.5 26 13.5 49.5 17.8 5 0.9 28.7 -0.3 36 -1.9z m-29 -63.2 c0 -28.6 -0.2 -33.5 -1.4 -32.3 -25.9 27.8 -58.4 63 -59.5 64.3 -1.3 1.6 0.4 1.7 29.8 1.7 l31.1 0 0 -33.7z m-32.6 -13.8 l32.6 -35 0 -39.7 0 -39.8 -14.3 0 c-13 0 -14.6 -0.2 -16.2 -2 -2.3 -2.6 -1.3 -6.8 2.1 -8 1.4 -0.6 8.4 -1 15.5 -1 l12.9 0 0 -5.8 c0 -6.6 1.9 -10.2 5.5 -10.2 3.6 0 5.5 3.6 5.5 10.2 l0 5.8 29.8 0 c33.4 -0.1 32.1 0.4 18.5 -7.1 -23 -12.7 -55 -16.8 -80.8 -10.3 -33.3 8.4 -59.1 29.4 -74.1 59.9 -7.7 15.7 -10.4 26.7 -11.1 44.1 -0.6 16 0.6 26.7 4.3 38.5 4.8 15.3 11 26.6 21.2 39.2 l5.5 6.8 5.3 -5.3 c2.9 -2.9 19.9 -21 37.8 -40.3z m69.2 -74.2 c13.7 -14.7 27.8 -29.8 31.3 -33.5 l6.3 -6.8 -31.6 0 -31.6 0 0 33.5 c0 18.4 0.2 33.5 0.4 33.5 0.2 0 11.5 -12 25.2 -26.7z"/>
 </g>
</svg>