<?xml version="1.0" encoding="utf-8"?>
<!DOCTYPE svg PUBLIC "-//W3C//DTD SVG 1.0//EN" "http://www.w3.org/TR/2001/REC-SVG-20010904/DTD/svg10.dtd">
<svg version="1.0" xmlns="http://www.w3.org/2000/svg" width="205px" height="199px" viewBox="0 0 205 199" preserveAspectRatio="xMidYMid meet">
 <g fill="#566c6c">
  <path d="M111.4 153 c-15.3 -26.4 -25.5 -43 -26.4 -43 -1.2 0 -2.7 8 -7.9 41.3 -3.5 22.6 -6.5 41.4 -6.7 41.5 -0.4 0.6 -18.8 -2 -19.7 -2.7 -0.4 -0.4 2.4 -20.6 6.3 -44.9 3.8 -24.4 7 -44.5 7 -44.7 0 -1.8 -5.6 1.5 -27 16 l-24.4 16.5 -5.3 -8 c-2.9 -4.4 -5.3 -8.3 -5.3 -8.8 0 -0.4 12.6 -9.3 28 -19.7 15.4 -10.3 28 -19.4 28 -20.2 0 -0.7 -8.3 -6.8 -18.5 -13.5 -10.1 -6.8 -18.5 -12.5 -18.5 -12.8 0 -0.3 2.4 -4.2 5.3 -8.8 l5.3 -8.2 19.8 13 c10.9 7.2 20.4 12.9 21.1 12.6 0.7 -0.2 5.4 -12.8 10.5 -27.9 5 -15 9.5 -27.9 9.8 -28.5 0.9 -1.3 19.2 4.8 19.2 6.4 0 0.5 -3.6 11.5 -8 24.3 -4.4 12.8 -8 23.7 -8 24.2 0 0.5 0.8 0.9 1.9 0.9 1 0 18.8 -5.9 39.5 -13 20.8 -7.1 38.1 -13 38.6 -13 1.2 0 7.2 18.3 6.2 19 -0.4 0.4 -16.3 6 -35.4 12.6 -25.6 8.7 -34.8 12.3 -34.8 13.4 0 1.1 13 6.8 45.4 19.9 l45.5 18.3 -1.9 4.7 c-1 2.5 -2.6 6.6 -3.6 9.1 -0.9 2.5 -1.8 4.7 -2 4.8 -0.1 0.2 -19.9 -7.5 -43.8 -17.2 -24 -9.7 -44.4 -17.6 -45.2 -17.6 -1.1 0 -1.5 0.6 -1.1 1.9 0.2 1.1 11.1 20.2 24.1 42.5 13 22.3 23.9 41.2 24.2 42 0.3 0.9 -2.1 2.9 -7.5 6 -4.4 2.5 -8.4 4.6 -8.9 4.6 -0.5 0 -12.1 -19.3 -25.8 -43z"/>
 </g>
</svg>