<?xml version="1.0" encoding="UTF-8" standalone="no"?>
<!DOCTYPE svg PUBLIC "-//W3C//DTD SVG 1.1//EN"
 "http://www.w3.org/Graphics/SVG/1.1/DTD/svg11.dtd">
<!-- Generated by graphviz version 15.0.0 (20260523.1842)
 -->
<!-- Title: MBBridgeDependencies Pages: 1 -->
<svg width="1436pt" height="1393pt"
 viewBox="0.00 0.00 1436.00 1393.00" xmlns="http://www.w3.org/2000/svg" xmlns:xlink="http://www.w3.org/1999/xlink">
<g id="graph0" class="graph" transform="scale(1 1) rotate(0) translate(4 1389.2)">
<title>MBBridgeDependencies</title>
<polygon fill="white" stroke="none" points="-4,4 -4,-1389.2 1432.01,-1389.2 1432.01,4 -4,4"/>
<text xml:space="preserve" text-anchor="middle" x="714.01" y="-1370.4" font-family="Helvetica,sans-Serif" font-size="12.00">field crux dependencies</text>
<!-- MB1 -->
<a xlink:href="../cards/mb1-boundary-estimator-soundness/" class="lean-graph-node"><g id="node1" class="node"><title>MB1</title>
<polygon fill="#ffe6e6" stroke="#cc3333" points="1291.48,-1362.8 1190.98,-1330.8 1291.48,-1298.8 1391.98,-1330.8 1291.48,-1362.8"/>
<text xml:space="preserve" text-anchor="middle" x="1291.48" y="-1333.8" font-family="Helvetica,sans-Serif" font-size="10.00">MB1</text>
<text xml:space="preserve" text-anchor="middle" x="1291.48" y="-1321.8" font-family="Helvetica,sans-Serif" font-size="10.00">Embedded Agency</text>
</g></a>
<!-- MB7a -->
<a xlink:href="../cards/mb7a-access-model-soundness/" class="lean-graph-node"><g id="node9" class="node"><title>MB7a</title>
<polygon fill="#ffe6e6" stroke="#cc3333" points="1214.48,-1175.2 1109,-1131.2 1214.48,-1087.2 1319.96,-1131.2 1214.48,-1175.2"/>
<text xml:space="preserve" text-anchor="middle" x="1214.48" y="-1140.2" font-family="Helvetica,sans-Serif" font-size="10.00">MB7a</text>
<text xml:space="preserve" text-anchor="middle" x="1214.48" y="-1128.2" font-family="Helvetica,sans-Serif" font-size="10.00">Inner Alignment</text>
<text xml:space="preserve" text-anchor="middle" x="1214.48" y="-1116.2" font-family="Helvetica,sans-Serif" font-size="10.00">(access robustness)</text>
</g></a>
<!-- MB1&#45;&gt;MB7a -->
<g id="edge3" class="edge">
<title>MB1&#45;&gt;MB7a</title>
<path fill="none" stroke="#cc3333" d="M1280.61,-1301.91C1268.04,-1269.67 1247.18,-1216.13 1232.25,-1177.81"/>
<polygon fill="#cc3333" stroke="#cc3333" points="1235.03,-1177.23 1229.52,-1170.8 1229.81,-1179.27 1235.03,-1177.23"/>
<text xml:space="preserve" text-anchor="middle" x="1292.12" y="-1239.7" font-family="Helvetica,sans-Serif" font-size="9.00">boundary aligned</text>
<text xml:space="preserve" text-anchor="middle" x="1292.12" y="-1228.9" font-family="Helvetica,sans-Serif" font-size="9.00">→ access robust</text>
</g>
<!-- MB11 -->
<a xlink:href="../cards/mb11-deployment-safety/" class="lean-graph-node"><g id="node16" class="node"><title>MB11</title>
<polygon fill="#ffe6e6" stroke="#cc3333" points="505.48,-64 404.99,-32 505.48,0 605.96,-32 505.48,-64"/>
<text xml:space="preserve" text-anchor="middle" x="505.48" y="-35" font-family="Helvetica,sans-Serif" font-size="10.00">MB11</text>
<text xml:space="preserve" text-anchor="middle" x="505.48" y="-23" font-family="Helvetica,sans-Serif" font-size="10.00">Deployment Safety</text>
</g></a>
<!-- MB1&#45;&gt;MB11 -->
<g id="edge16" class="edge">
<title>MB1&#45;&gt;MB11</title>
<path fill="none" stroke="#333333" d="M1308.76,-1303.89C1331.46,-1267.27 1368.48,-1197.55 1368.48,-1132.2 1368.48,-1132.2 1368.48,-1132.2 1368.48,-241.4 1368.48,-85.86 832.07,-46.04 605.06,-36.15"/>
<polygon fill="#333333" stroke="#333333" points="605.42,-33.36 597.31,-35.82 605.18,-38.96 605.42,-33.36"/>
<text xml:space="preserve" text-anchor="middle" x="1398.25" y="-662.9" font-family="Helvetica,sans-Serif" font-size="9.00">boundary layer</text>
</g>
<!-- MB2 -->
<a xlink:href="../cards/mb2-bundle-identifiability/" class="lean-graph-node"><g id="node2" class="node"><title>MB2</title>
<polygon fill="#ffe6e6" stroke="#cc3333" points="95.48,-697.6 12.2,-665.6 95.48,-633.6 178.75,-665.6 95.48,-697.6"/>
<text xml:space="preserve" text-anchor="middle" x="95.48" y="-668.6" font-family="Helvetica,sans-Serif" font-size="10.00">MB2</text>
<text xml:space="preserve" text-anchor="middle" x="95.48" y="-656.6" font-family="Helvetica,sans-Serif" font-size="10.00">Value Learning</text>
</g></a>
<!-- MB3 -->
<a xlink:href="../cards/mb3-bearer-import/" class="lean-graph-node"><g id="node3" class="node"><title>MB3</title>
<polygon fill="#ffe6e6" stroke="#cc3333" points="182.48,-486 99.77,-454 182.48,-422 265.19,-454 182.48,-486"/>
<text xml:space="preserve" text-anchor="middle" x="182.48" y="-457" font-family="Helvetica,sans-Serif" font-size="10.00">MB3</text>
<text xml:space="preserve" text-anchor="middle" x="182.48" y="-445" font-family="Helvetica,sans-Serif" font-size="10.00">Value Referent</text>
</g></a>
<!-- MB2&#45;&gt;MB3 -->
<g id="edge1" class="edge">
<title>MB2&#45;&gt;MB3</title>
<path fill="none" stroke="#cc3333" d="M106.67,-637.63C122.24,-600.13 150.44,-532.19 167.71,-490.58"/>
<polygon fill="#cc3333" stroke="#cc3333" points="170.26,-491.73 170.74,-483.27 165.09,-489.58 170.26,-491.73"/>
<text xml:space="preserve" text-anchor="middle" x="183.35" y="-562.5" font-family="Helvetica,sans-Serif" font-size="9.00">values transport</text>
<text xml:space="preserve" text-anchor="middle" x="183.35" y="-551.7" font-family="Helvetica,sans-Serif" font-size="9.00">→ referents transport</text>
</g>
<!-- MB2&#45;&gt;MB11 -->
<g id="edge17" class="edge">
<title>MB2&#45;&gt;MB11</title>
<path fill="none" stroke="#333333" d="M84.05,-637.8C48.92,-550.76 -47.48,-272.57 82.48,-115 104.11,-88.77 308.4,-58.43 424.97,-43.06"/>
<polygon fill="#333333" stroke="#333333" points="425.17,-45.85 432.74,-42.04 424.45,-40.3 425.17,-45.85"/>
<text xml:space="preserve" text-anchor="middle" x="41.82" y="-345.5" font-family="Helvetica,sans-Serif" font-size="9.00">bundle layer</text>
</g>
<!-- MB5 -->
<a xlink:href="../cards/mb5-successor-ontology-shift/" class="lean-graph-node"><g id="node6" class="node"><title>MB5</title>
<polygon fill="#ffe6e6" stroke="#cc3333" points="182.48,-274.4 142.58,-242.4 182.48,-210.4 222.37,-242.4 182.48,-274.4"/>
<text xml:space="preserve" text-anchor="middle" x="182.48" y="-245.4" font-family="Helvetica,sans-Serif" font-size="10.00">MB5</text>
<text xml:space="preserve" text-anchor="middle" x="182.48" y="-233.4" font-family="Helvetica,sans-Serif" font-size="10.00">Tiling</text>
</g></a>
<!-- MB3&#45;&gt;MB5 -->
<g id="edge2" class="edge">
<title>MB3&#45;&gt;MB5</title>
<path fill="none" stroke="#cc3333" d="M182.48,-421.62C182.48,-385.12 182.48,-324.73 182.48,-284.51"/>
<polygon fill="#cc3333" stroke="#cc3333" points="185.28,-284.51 182.48,-276.51 179.68,-284.51 185.28,-284.51"/>
<text xml:space="preserve" text-anchor="middle" x="219.24" y="-350.9" font-family="Helvetica,sans-Serif" font-size="9.00">referents transport</text>
<text xml:space="preserve" text-anchor="middle" x="219.24" y="-340.1" font-family="Helvetica,sans-Serif" font-size="9.00">→ successor audit</text>
</g>
<!-- MB3&#45;&gt;MB11 -->
<g id="edge18" class="edge">
<title>MB3&#45;&gt;MB11</title>
<path fill="none" stroke="#333333" d="M206.17,-431.04C224.29,-413.14 248.75,-386.43 264.48,-359 322.96,-257.04 283.8,-198.55 366.48,-115 391.68,-89.53 426.39,-69.05 454.81,-54.92"/>
<polygon fill="#333333" stroke="#333333" points="455.7,-57.6 461.67,-51.59 453.25,-52.57 455.7,-57.6"/>
<text xml:space="preserve" text-anchor="middle" x="337.87" y="-239.7" font-family="Helvetica,sans-Serif" font-size="9.00">bearer layer</text>
</g>
<!-- MB4 -->
<a xlink:href="../cards/mb4-correction-legitimacy/" class="lean-graph-node"><g id="node4" class="node"><title>MB4</title>
<polygon fill="#ffe6e6" stroke="#cc3333" points="505.48,-274.4 440.02,-242.4 505.48,-210.4 570.93,-242.4 505.48,-274.4"/>
<text xml:space="preserve" text-anchor="middle" x="505.48" y="-245.4" font-family="Helvetica,sans-Serif" font-size="10.00">MB4</text>
<text xml:space="preserve" text-anchor="middle" x="505.48" y="-233.4" font-family="Helvetica,sans-Serif" font-size="10.00">Corrigibility</text>
</g></a>
<!-- MB4&#45;&gt;MB11 -->
<g id="edge23" class="edge">
<title>MB4&#45;&gt;MB11</title>
<path fill="none" stroke="#333333" d="M505.48,-210.2C505.48,-173.91 505.48,-113.86 505.48,-73.87"/>
<polygon fill="#333333" stroke="#333333" points="508.28,-73.93 505.48,-65.93 502.68,-73.93 508.28,-73.93"/>
<text xml:space="preserve" text-anchor="middle" x="543.25" y="-128.5" font-family="Helvetica,sans-Serif" font-size="9.00">correction operator</text>
</g>
<!-- MB4a -->
<a xlink:href="../cards/mb4a-measured-path-legitimacy/" class="lean-graph-node"><g id="node5" class="node"><title>MB4a</title>
<polygon fill="#ffe6e6" stroke="#cc3333" points="707.48,-274.4 602.51,-242.4 707.48,-210.4 812.44,-242.4 707.48,-274.4"/>
<text xml:space="preserve" text-anchor="middle" x="707.48" y="-245.4" font-family="Helvetica,sans-Serif" font-size="10.00">MB4a</text>
<text xml:space="preserve" text-anchor="middle" x="707.48" y="-233.4" font-family="Helvetica,sans-Serif" font-size="10.00">Audit Independence</text>
</g></a>
<!-- MB4a&#45;&gt;MB11 -->
<g id="edge24" class="edge">
<title>MB4a&#45;&gt;MB11</title>
<path fill="none" stroke="#333333" d="M685.19,-216.85C661.7,-191.15 623.48,-149.77 589.48,-115 572.27,-97.41 552.61,-78.17 536.63,-62.75"/>
<polygon fill="#333333" stroke="#333333" points="538.83,-60.97 531.12,-57.44 534.94,-65 538.83,-60.97"/>
<text xml:space="preserve" text-anchor="middle" x="638.85" y="-128.5" font-family="Helvetica,sans-Serif" font-size="9.00">audit path</text>
</g>
<!-- MB10 -->
<a xlink:href="../cards/mb10-successor-forgeability/" class="lean-graph-node"><g id="node15" class="node"><title>MB10</title>
<polygon fill="#ffe6e6" stroke="#cc3333" points="100.48,-64 0,-32 100.48,0 200.96,-32 100.48,-64"/>
<text xml:space="preserve" text-anchor="middle" x="100.48" y="-35" font-family="Helvetica,sans-Serif" font-size="10.00">MB10</text>
<text xml:space="preserve" text-anchor="middle" x="100.48" y="-23" font-family="Helvetica,sans-Serif" font-size="10.00">Successor Gaming</text>
</g></a>
<!-- MB5&#45;&gt;MB10 -->
<g id="edge15" class="edge">
<title>MB5&#45;&gt;MB10</title>
<path fill="none" stroke="#cc3333" d="M162.07,-226.45C141.28,-209.83 110.33,-180.87 97.43,-147.4 88.19,-123.39 89.07,-94.4 92.21,-71.61"/>
<polygon fill="#cc3333" stroke="#cc3333" points="94.97,-72.08 93.43,-63.75 89.43,-71.22 94.97,-72.08"/>
<text xml:space="preserve" text-anchor="middle" x="135.46" y="-139.3" font-family="Helvetica,sans-Serif" font-size="9.00">successor safe</text>
<text xml:space="preserve" text-anchor="middle" x="135.46" y="-128.5" font-family="Helvetica,sans-Serif" font-size="9.00">+ verifiable audit</text>
<text xml:space="preserve" text-anchor="middle" x="135.46" y="-117.7" font-family="Helvetica,sans-Serif" font-size="9.00">→ true harm bound</text>
</g>
<!-- MB5&#45;&gt;MB11 -->
<g id="edge19" class="edge">
<title>MB5&#45;&gt;MB11</title>
<path fill="none" stroke="#333333" d="M181.04,-211.06C181.39,-182.6 186.54,-140.67 210.96,-115 240.92,-83.5 353.17,-58.73 430.1,-44.98"/>
<polygon fill="#333333" stroke="#333333" points="430.42,-47.77 437.81,-43.62 429.45,-42.25 430.42,-47.77"/>
<text xml:space="preserve" text-anchor="middle" x="242.22" y="-128.5" font-family="Helvetica,sans-Serif" font-size="9.00">successor layer</text>
</g>
<!-- MB6a -->
<a xlink:href="../cards/mb6-selection-and-basin-stability/" class="lean-graph-node"><g id="node7" class="node"><title>MB6a</title>
<polygon fill="#ffe6e6" stroke="#cc3333" points="997.48,-709.6 888.1,-665.6 997.48,-621.6 1106.86,-665.6 997.48,-709.6"/>
<text xml:space="preserve" text-anchor="middle" x="997.48" y="-674.6" font-family="Helvetica,sans-Serif" font-size="10.00">MB6a</text>
<text xml:space="preserve" text-anchor="middle" x="997.48" y="-662.6" font-family="Helvetica,sans-Serif" font-size="10.00">Goodhart Selection</text>
<text xml:space="preserve" text-anchor="middle" x="997.48" y="-650.6" font-family="Helvetica,sans-Serif" font-size="10.00">(percolation → basin)</text>
</g></a>
<!-- MB6b -->
<a xlink:href="../cards/mb6-selection-and-basin-stability/" class="lean-graph-node"><g id="node8" class="node"><title>MB6b</title>
<polygon fill="#ffe6e6" stroke="#cc3333" points="997.48,-498 893.11,-454 997.48,-410 1101.84,-454 997.48,-498"/>
<text xml:space="preserve" text-anchor="middle" x="997.48" y="-463" font-family="Helvetica,sans-Serif" font-size="10.00">MB6b</text>
<text xml:space="preserve" text-anchor="middle" x="997.48" y="-451" font-family="Helvetica,sans-Serif" font-size="10.00">Goodhart Selection</text>
<text xml:space="preserve" text-anchor="middle" x="997.48" y="-439" font-family="Helvetica,sans-Serif" font-size="10.00">(basin → correction)</text>
</g></a>
<!-- MB6a&#45;&gt;MB6b -->
<g id="edge8" class="edge">
<title>MB6a&#45;&gt;MB6b</title>
<path fill="none" stroke="#cc3333" d="M997.48,-621.17C997.48,-588.15 997.48,-542.58 997.48,-507.51"/>
<polygon fill="#cc3333" stroke="#cc3333" points="1000.28,-507.89 997.48,-499.89 994.68,-507.89 1000.28,-507.89"/>
<text xml:space="preserve" text-anchor="middle" x="1039.24" y="-562.5" font-family="Helvetica,sans-Serif" font-size="9.00">basin stable</text>
<text xml:space="preserve" text-anchor="middle" x="1039.24" y="-551.7" font-family="Helvetica,sans-Serif" font-size="9.00">→ correction integrity</text>
</g>
<!-- MB6a&#45;&gt;MB11 -->
<g id="edge21" class="edge">
<title>MB6a&#45;&gt;MB11</title>
<path fill="none" stroke="#333333" d="M908.04,-657.09C795.89,-643.34 603.47,-604.82 480.48,-498 378.21,-409.17 388.47,-328.99 424.48,-198.4 437.76,-150.24 465,-99.25 484.22,-66.82"/>
<polygon fill="#333333" stroke="#333333" points="486.42,-68.59 488.14,-60.29 481.62,-65.71 486.42,-68.59"/>
<text xml:space="preserve" text-anchor="middle" x="421.7" y="-345.5" font-family="Helvetica,sans-Serif" font-size="9.00">basin layer</text>
</g>
<!-- MB6b&#45;&gt;MB4 -->
<g id="edge10" class="edge">
<title>MB6b&#45;&gt;MB4</title>
<path fill="none" stroke="#cc3333" d="M958.14,-426.12C930.99,-407.47 894.12,-381.94 861.94,-359 848.72,-349.57 847.31,-344 832.48,-337.4 730.46,-292.02 691.51,-324.29 586.48,-286.4 571.35,-280.94 555.54,-273.09 541.95,-265.59"/>
<polygon fill="#cc3333" stroke="#cc3333" points="543.47,-263.23 535.12,-261.74 540.71,-268.11 543.47,-263.23"/>
<text xml:space="preserve" text-anchor="middle" x="907.71" y="-350.9" font-family="Helvetica,sans-Serif" font-size="9.00">correction integrity</text>
<text xml:space="preserve" text-anchor="middle" x="907.71" y="-340.1" font-family="Helvetica,sans-Serif" font-size="9.00">→ preserves correction</text>
</g>
<!-- MB6b&#45;&gt;MB4a -->
<g id="edge11" class="edge">
<title>MB6b&#45;&gt;MB4a</title>
<path fill="none" stroke="#cc3333" d="M993.62,-411.24C989.34,-386.95 980.36,-357.3 961.48,-337.4 957.89,-333.62 837.45,-289.99 763.73,-263.52"/>
<polygon fill="#cc3333" stroke="#cc3333" points="764.88,-260.96 756.4,-260.89 762.99,-266.23 764.88,-260.96"/>
<text xml:space="preserve" text-anchor="middle" x="1032.02" y="-350.9" font-family="Helvetica,sans-Serif" font-size="9.00">correction integrity</text>
<text xml:space="preserve" text-anchor="middle" x="1032.02" y="-340.1" font-family="Helvetica,sans-Serif" font-size="9.00">→ measured path legitimate</text>
</g>
<!-- MB7c -->
<a xlink:href="../cards/mb7c-bounded-hidden-capability/" class="lean-graph-node"><g id="node11" class="node"><title>MB7c</title>
<polygon fill="#ffe6e6" stroke="#cc3333" points="967.48,-286.4 844.21,-242.4 967.48,-198.4 1090.74,-242.4 967.48,-286.4"/>
<text xml:space="preserve" text-anchor="middle" x="967.48" y="-251.4" font-family="Helvetica,sans-Serif" font-size="10.00">MB7c</text>
<text xml:space="preserve" text-anchor="middle" x="967.48" y="-239.4" font-family="Helvetica,sans-Serif" font-size="10.00">Inner Alignment</text>
<text xml:space="preserve" text-anchor="middle" x="967.48" y="-227.4" font-family="Helvetica,sans-Serif" font-size="10.00">(adversarial robustness)</text>
</g></a>
<!-- MB6b&#45;&gt;MB7c -->
<g id="edge9" class="edge">
<title>MB6b&#45;&gt;MB7c</title>
<path fill="none" stroke="#cc3333" d="M1046.73,-430.42C1085.47,-409.22 1129.78,-375.19 1109.48,-337.4 1093.37,-307.41 1063.03,-285.39 1034.51,-270.22"/>
<polygon fill="#cc3333" stroke="#cc3333" points="1035.88,-267.78 1027.48,-266.62 1033.33,-272.76 1035.88,-267.78"/>
<text xml:space="preserve" text-anchor="middle" x="1151.33" y="-345.5" font-family="Helvetica,sans-Serif" font-size="9.00">correction integrity</text>
</g>
<!-- MB7b -->
<a xlink:href="../cards/mb7b-filter-coverage/" class="lean-graph-node"><g id="node10" class="node"><title>MB7b</title>
<polygon fill="#ffe6e6" stroke="#cc3333" points="1232.48,-848.6 1146.44,-804.6 1232.48,-760.6 1318.52,-804.6 1232.48,-848.6"/>
<text xml:space="preserve" text-anchor="middle" x="1232.48" y="-813.6" font-family="Helvetica,sans-Serif" font-size="10.00">MB7b</text>
<text xml:space="preserve" text-anchor="middle" x="1232.48" y="-801.6" font-family="Helvetica,sans-Serif" font-size="10.00">Inner Alignment</text>
<text xml:space="preserve" text-anchor="middle" x="1232.48" y="-789.6" font-family="Helvetica,sans-Serif" font-size="10.00">(filter coverage)</text>
</g></a>
<!-- MB7a&#45;&gt;MB7b -->
<g id="edge4" class="edge">
<title>MB7a&#45;&gt;MB7b</title>
<path fill="none" stroke="#cc3333" d="M1216.83,-1087.76C1220.12,-1028.51 1226.07,-921.1 1229.61,-857.26"/>
<polygon fill="#cc3333" stroke="#cc3333" points="1232.41,-857.44 1230.05,-849.3 1226.82,-857.13 1232.41,-857.44"/>
<text xml:space="preserve" text-anchor="middle" x="1278.11" y="-1028.1" font-family="Helvetica,sans-Serif" font-size="9.00">access robust</text>
<text xml:space="preserve" text-anchor="middle" x="1278.11" y="-1017.3" font-family="Helvetica,sans-Serif" font-size="9.00">→ hidden capability bounded</text>
</g>
<!-- MB7d -->
<a xlink:href="../cards/mb7d-acausal-coordination/" class="lean-graph-node"><g id="node12" class="node"><title>MB7d</title>
<polygon fill="#ffe6e6" stroke="#cc3333" points="1047.48,-963.6 936.42,-931.6 1047.48,-899.6 1158.54,-931.6 1047.48,-963.6"/>
<text xml:space="preserve" text-anchor="middle" x="1047.48" y="-934.6" font-family="Helvetica,sans-Serif" font-size="10.00">MB7d</text>
<text xml:space="preserve" text-anchor="middle" x="1047.48" y="-922.6" font-family="Helvetica,sans-Serif" font-size="10.00">Acausal Coordination</text>
</g></a>
<!-- MB7a&#45;&gt;MB7d -->
<g id="edge5" class="edge">
<title>MB7a&#45;&gt;MB7d</title>
<path fill="none" stroke="#cc3333" d="M1165.19,-1107.32C1135.73,-1091.29 1099.8,-1067.19 1077.42,-1036.2 1063.92,-1017.51 1056.48,-992.83 1052.39,-972.25"/>
<polygon fill="#cc3333" stroke="#cc3333" points="1055.19,-971.98 1051.01,-964.6 1049.68,-972.97 1055.19,-971.98"/>
<text xml:space="preserve" text-anchor="middle" x="1130.45" y="-1028.1" font-family="Helvetica,sans-Serif" font-size="9.00">access robust</text>
<text xml:space="preserve" text-anchor="middle" x="1130.45" y="-1017.3" font-family="Helvetica,sans-Serif" font-size="9.00">→ inferential coupling valid</text>
</g>
<!-- MB7b&#45;&gt;MB7c -->
<g id="edge6" class="edge">
<title>MB7b&#45;&gt;MB7c</title>
<path fill="none" stroke="#cc3333" d="M1234.69,-761.25C1239.16,-659.38 1245.09,-404.18 1196.48,-337.4 1177.65,-311.54 1103.29,-283.97 1044.35,-265.42"/>
<polygon fill="#cc3333" stroke="#cc3333" points="1045.32,-262.79 1036.84,-263.09 1043.65,-268.14 1045.32,-262.79"/>
<text xml:space="preserve" text-anchor="middle" x="1288.97" y="-557.1" font-family="Helvetica,sans-Serif" font-size="9.00">hidden capability bounded</text>
</g>
<!-- MB7c&#45;&gt;MB11 -->
<g id="edge22" class="edge">
<title>MB7c&#45;&gt;MB11</title>
<path fill="none" stroke="#333333" d="M914.03,-217.29C823.69,-176.54 642.12,-94.64 554.71,-55.21"/>
<polygon fill="#333333" stroke="#333333" points="556.12,-52.77 547.68,-52.04 553.82,-57.88 556.12,-52.77"/>
<text xml:space="preserve" text-anchor="middle" x="783.34" y="-128.5" font-family="Helvetica,sans-Serif" font-size="9.00">adversarial layer</text>
</g>
<!-- MB7d&#45;&gt;MB6a -->
<g id="edge7" class="edge">
<title>MB7d&#45;&gt;MB6a</title>
<path fill="none" stroke="#cc3333" d="M1041.84,-900.83C1033.34,-855.96 1017.15,-770.48 1006.86,-716.13"/>
<polygon fill="#cc3333" stroke="#cc3333" points="1009.65,-715.85 1005.41,-708.51 1004.15,-716.89 1009.65,-715.85"/>
<text xml:space="preserve" text-anchor="middle" x="1070.08" y="-807.3" font-family="Helvetica,sans-Serif" font-size="9.00">inferential evidence</text>
<text xml:space="preserve" text-anchor="middle" x="1070.08" y="-796.5" font-family="Helvetica,sans-Serif" font-size="9.00">→ basin stability</text>
</g>
<!-- MB8 -->
<a xlink:href="../cards/mb8-cev-process-convergence/" class="lean-graph-node"><g id="node13" class="node"><title>MB8</title>
<polygon fill="#ffe6e6" stroke="#cc3333" points="604.48,-486 496.75,-454 604.48,-422 712.2,-454 604.48,-486"/>
<text xml:space="preserve" text-anchor="middle" x="604.48" y="-457" font-family="Helvetica,sans-Serif" font-size="10.00">MB8</text>
<text xml:space="preserve" text-anchor="middle" x="604.48" y="-445" font-family="Helvetica,sans-Serif" font-size="10.00">Extrapolated Volition</text>
</g></a>
<!-- MB8&#45;&gt;MB4 -->
<g id="edge12" class="edge">
<title>MB8&#45;&gt;MB4</title>
<path fill="none" stroke="#cc3333" d="M559.32,-435.03C527.98,-419.88 488.62,-394.88 469.92,-359 455.85,-332.02 469.1,-298.54 483.26,-274.57"/>
<polygon fill="#cc3333" stroke="#cc3333" points="485.62,-276.07 487.46,-267.8 480.86,-273.12 485.62,-276.07"/>
<text xml:space="preserve" text-anchor="middle" x="517.2" y="-350.9" font-family="Helvetica,sans-Serif" font-size="9.00">value&#45;update preserved</text>
<text xml:space="preserve" text-anchor="middle" x="517.2" y="-340.1" font-family="Helvetica,sans-Serif" font-size="9.00">→ correction integrity</text>
</g>
<!-- MB8&#45;&gt;MB4a -->
<g id="edge13" class="edge">
<title>MB8&#45;&gt;MB4a</title>
<path fill="none" stroke="#cc3333" d="M597.19,-424.09C592.59,-399.84 589.59,-364.87 601.92,-337.4 614.73,-308.83 640.99,-285.4 664.11,-269.07"/>
<polygon fill="#cc3333" stroke="#cc3333" points="665.53,-271.49 670.56,-264.66 662.37,-266.86 665.53,-271.49"/>
<text xml:space="preserve" text-anchor="middle" x="649.2" y="-350.9" font-family="Helvetica,sans-Serif" font-size="9.00">value&#45;update preserved</text>
<text xml:space="preserve" text-anchor="middle" x="649.2" y="-340.1" font-family="Helvetica,sans-Serif" font-size="9.00">→ correction integrity</text>
</g>
<!-- MB8&#45;&gt;MB7c -->
<g id="edge14" class="edge">
<title>MB8&#45;&gt;MB7c</title>
<path fill="none" stroke="#cc3333" d="M626.8,-428.58C651.13,-403.09 692.2,-363.31 733.92,-337.4 783.45,-306.63 844.78,-282.41 892.17,-266.26"/>
<polygon fill="#cc3333" stroke="#cc3333" points="893.02,-268.92 899.71,-263.72 891.24,-263.62 893.02,-268.92"/>
<text xml:space="preserve" text-anchor="middle" x="781.2" y="-350.9" font-family="Helvetica,sans-Serif" font-size="9.00">value&#45;update preserved</text>
<text xml:space="preserve" text-anchor="middle" x="781.2" y="-340.1" font-family="Helvetica,sans-Serif" font-size="9.00">→ correction integrity</text>
</g>
<!-- MB9 -->
<a xlink:href="../cards/mb9-grounding-certificate/" class="lean-graph-node"><g id="node14" class="node"><title>MB9</title>
<polygon fill="#ffe6e6" stroke="#cc3333" points="1206.48,-274.4 1122.67,-242.4 1206.48,-210.4 1290.29,-242.4 1206.48,-274.4"/>
<text xml:space="preserve" text-anchor="middle" x="1206.48" y="-245.4" font-family="Helvetica,sans-Serif" font-size="10.00">MB9</text>
<text xml:space="preserve" text-anchor="middle" x="1206.48" y="-233.4" font-family="Helvetica,sans-Serif" font-size="10.00">Grounding Drift</text>
</g></a>
<!-- MB9&#45;&gt;MB11 -->
<g id="edge20" class="edge">
<title>MB9&#45;&gt;MB11</title>
<path fill="none" stroke="#333333" d="M1169.38,-224.2C1150.72,-215.87 1127.63,-206.04 1106.48,-198.4 916.91,-129.88 685.03,-73.51 572.77,-47.88"/>
<polygon fill="#333333" stroke="#333333" points="573.49,-45.17 565.07,-46.13 572.25,-50.63 573.49,-45.17"/>
<text xml:space="preserve" text-anchor="middle" x="974.94" y="-128.5" font-family="Helvetica,sans-Serif" font-size="9.00">grounding layer</text>
</g>
</g>
</svg>
