<?xml version="1.0" encoding="utf-8"?>
<!DOCTYPE svg PUBLIC "-//W3C//DTD SVG 1.0//EN" "http://www.w3.org/TR/2001/REC-SVG-20010904/DTD/svg10.dtd">
<svg version="1.0" xmlns="http://www.w3.org/2000/svg" width="734px" height="326px" viewBox="0 0 734 326" preserveAspectRatio="xMidYMid meet">
 <g fill="#34659b">
  <path d="M1.2 324.8 c-1.7 -1.7 -1.5 -5.5 0.4 -6.2 0.9 -0.3 9.2 -0.6 18.5 -0.6 19.3 0 17.7 0.8 21.9 -10.5 1.2 -3.3 3.1 -7.8 4.1 -10.1 1.6 -3.6 1.9 -6.7 1.9 -23.1 0 -17.7 0.2 -19.6 2.5 -26.9 2.3 -7.1 4.9 -13.1 9 -20.4 2.5 -4.5 18.6 -19 21.1 -19 0.6 0 1.7 -0.7 2.4 -1.5 1.6 -1.9 11.7 -6.5 14.4 -6.5 1.2 0 3.8 -0.8 5.8 -1.8 6.1 -3.2 23.3 -4.6 24.9 -2.1 0.5 0.8 0.9 9.7 0.9 19.9 0 19.5 -0.8 24.2 -6.1 35.5 -1.1 2.2 -1.9 4.5 -1.9 5 -0.1 3.8 -12.5 17.6 -20.6 23 -2.9 2 -5.6 4 -5.9 4.5 -0.3 0.6 -1.4 1 -2.4 1 -1 0 -2.9 0.8 -4.2 1.8 -1.3 1.1 -4.1 2.2 -6.3 2.5 -2.1 0.3 -4.6 1.2 -5.5 2 -0.9 0.8 -4.1 1.7 -7.2 2.1 -10.5 1.1 -16 4.9 -17.3 12 -0.4 1.9 -1.3 3.9 -2.1 4.6 -2.1 1.8 -1.9 5.7 0.4 7 1.3 0.7 30 1 86 1 91.6 0 87.1 0.3 87.1 -5.5 0 -1.3 0.9 -4.7 2 -7.5 1.1 -2.8 2 -6.1 2 -7.4 0 -1.3 0.9 -4.3 2 -6.7 1.1 -2.4 2 -5.4 2 -6.5 0 -1.2 0.7 -2.7 1.5 -3.4 0.8 -0.7 1.7 -2.8 2.1 -4.9 0.8 -4.7 3.6 -11.7 8.6 -21.6 4.1 -8 4.1 -8 3.3 -17.5 -1 -12.7 -1 -14.8 -0.1 -27 0.9 -13 2.1 -21.3 3.5 -23.9 0.6 -1.1 1.1 -3.3 1.1 -5 0 -1.6 1.1 -5.1 2.5 -7.7 1.4 -2.6 2.5 -5.5 2.5 -6.4 0 -1 0.6 -2.3 1.4 -2.9 0.8 -0.7 1.8 -2.6 2.1 -4.2 0.4 -1.6 1.1 -3.1 1.6 -3.4 0.4 -0.3 2.5 -3.2 4.6 -6.3 4.4 -6.6 15 -17.4 21.4 -21.7 2.4 -1.6 4.5 -3.3 4.7 -3.7 0.8 -1.7 29.7 -14.8 32.7 -14.8 0.9 0 2.9 -0.7 4.3 -1.5 2.4 -1.3 6.2 -2.3 21.5 -5.6 2.6 -0.5 7.7 -0.9 11.5 -0.7 6.7 0.3 6.7 0.3 7.5 8.8 1.2 12.3 -0.1 46.6 -1.8 50.8 -0.8 1.8 -1.7 5.7 -2.1 8.5 -0.4 2.9 -1.5 6.6 -2.5 8.3 -1.1 1.7 -1.9 4 -1.9 5 0 1.1 -0.9 3.3 -2 4.9 -1.1 1.7 -2 3.7 -2 4.6 0 0.9 -0.9 2.4 -2 3.4 -1.1 1 -2 2.5 -2 3.3 0 0.8 -1.9 3.6 -4.2 6.2 -2.4 2.6 -5.1 5.9 -6.1 7.4 -3.1 4.6 -19.9 17.2 -27.9 21 -4.2 2 -7.9 4 -8.2 4.5 -0.3 0.5 -2.2 1.2 -4.2 1.6 -2 0.3 -4.6 1.2 -5.8 2 -1.2 0.7 -3.9 1.6 -6.1 2 -2.2 0.4 -4.6 1.1 -5.2 1.7 -1.1 0.9 -4.5 1.8 -16.3 4.2 -1.4 0.3 -4.7 0.8 -7.4 1.1 -3.7 0.5 -5.5 1.4 -7.7 3.8 -1.6 1.7 -2.9 3.9 -2.9 4.8 0 0.9 -0.9 2.8 -2 4.2 -1.1 1.4 -2 3 -2 3.6 0 0.7 -0.9 2.9 -2 5.1 -1.1 2.2 -2 4.7 -2 5.7 0 1 -0.9 3.5 -2 5.6 -1.1 2 -2 4.5 -2 5.4 -0.1 1 -0.9 3.6 -2 5.8 -1.1 2.2 -2 5.4 -2 7 0 1.7 -0.7 4.3 -1.5 5.9 -2 3.7 -1.9 8.2 0.1 9 0.9 0.3 53.5 0.6 117 0.6 115.5 0 115.5 0 117.9 -2.5 1.4 -1.3 2.5 -3.4 2.5 -4.7 0 -1.3 0.7 -3.6 1.5 -5.2 0.9 -1.7 2 -5 2.6 -7.5 0.6 -2.5 1.6 -5.2 2.3 -6.1 0.8 -0.8 1.7 -3.1 2.1 -5 0.4 -1.9 1.3 -4.2 2 -5 0.7 -0.8 1.6 -2.6 2 -4 0.4 -1.4 1.3 -3.2 2 -4 0.7 -0.8 1.6 -2.6 2 -4 0.4 -1.4 1.3 -3.2 2 -4 0.7 -0.8 1.6 -2.6 2 -4 0.4 -1.4 1.3 -3.2 2 -4 0.7 -0.8 1.8 -3.2 2.4 -5.2 0.7 -2 1.5 -3.8 1.9 -4 1.1 -0.5 6.2 -8.3 6.2 -9.4 0 -0.6 1.8 -3.5 4 -6.4 4.6 -6.1 5.2 -10.4 2.1 -15.4 -1 -1.7 -2.2 -4.2 -2.6 -5.6 -0.4 -1.4 -1.3 -3.2 -1.9 -4 -0.7 -0.8 -2.2 -4.2 -3.5 -7.5 -1.2 -3.3 -3.1 -7.8 -4.2 -10.1 -1 -2.3 -1.9 -4.5 -1.9 -5 0 -0.5 -2.3 -2.9 -5.1 -5.4 -11.3 -10 -25.9 -25.2 -28.1 -29.4 -0.6 -1.2 -2.5 -3.9 -4.2 -6.1 -1.7 -2.2 -3.7 -5.1 -4.4 -6.5 -0.6 -1.4 -1.6 -3.2 -2 -4 -4.1 -7.1 -9.2 -19.9 -9.2 -23.1 0 -1.6 -0.7 -4.9 -1.6 -7.4 -1.1 -3.5 -1.4 -7.4 -1.1 -16.3 0.6 -16.9 3.3 -29.5 8.8 -41.8 1.1 -2.3 1.9 -4.6 1.9 -5.1 0 -0.5 0.9 -2 2 -3.3 1.1 -1.3 2 -3 2 -3.7 0 -0.8 0.9 -2.6 2 -4 1.1 -1.4 2 -3.5 2 -4.6 0 -1.1 0.9 -2.9 2.1 -4.1 1.1 -1.2 3.8 -4.6 6 -7.6 8.1 -11.6 9.3 -13 11.2 -13 3.6 0 12 6.6 23.4 18.3 9.7 10 13.3 14.4 17.8 21.6 0.6 0.9 2.7 4.1 4.8 7.2 2 3.1 3.7 6.2 3.7 6.8 0 0.7 0.9 2.4 2 3.8 1.1 1.4 2 3.8 2 5.2 0 1.5 0.7 3.7 1.6 4.9 5 7.2 5.1 47.1 0.1 58.4 -1 2.1 -1.7 4.8 -1.7 6 0 1.3 -0.9 3.7 -2 5.3 -1.1 1.7 -2 4 -2 5.1 0 1.2 -0.9 3.2 -1.9 4.6 -1.1 1.3 -2.3 3.6 -2.6 5.1 -0.4 1.4 -1.3 3.1 -2.1 3.8 -0.8 0.6 -1.4 1.9 -1.4 2.9 0 0.9 -1.1 2.9 -2.5 4.4 -1.4 1.5 -2.5 3.1 -2.5 3.6 0 0.4 -1.7 3 -3.7 5.7 -6.1 7.9 -6.3 8.5 -4.8 12.9 0.8 2.2 1.4 4.9 1.5 6.1 0 1.2 0.5 2.5 1.1 2.9 1.2 0.7 4.6 8.1 6.3 13.9 1.4 4.7 4.4 5.8 7.3 2.7 6.3 -6.8 9.2 -10.2 11.8 -14.1 1.7 -2.5 5.5 -7 8.5 -10 6.7 -6.8 8.7 -10.6 9.9 -19.1 0.9 -6.6 2.7 -12.6 6.2 -21.2 1 -2.6 1.9 -5.8 1.9 -7.2 0 -1.4 0.4 -2.7 1 -3.1 0.8 -0.5 3.6 -6 7.9 -15.5 0.6 -1.4 1.6 -3.4 2.3 -4.5 5 -8.2 6.7 -10.5 9.8 -14.2 1.9 -2.2 5 -6.2 6.8 -8.7 1.8 -2.5 5.8 -6.5 9 -8.8 3.1 -2.3 7.5 -5.8 9.7 -7.8 3.7 -3.3 19.9 -12 22.4 -12 0.7 0 2.2 -0.6 3.4 -1.4 1.2 -0.8 4.2 -1.7 6.6 -2.1 2.4 -0.4 5.9 -1.4 7.8 -2.1 3.9 -1.7 25.8 -3.8 38.8 -3.8 12.4 -0.1 36.6 2.1 37.9 3.4 0.5 0.5 1.8 1 2.8 1 2.9 0 7 3.1 5.9 4.4 -0.5 0.6 -1.2 4.3 -1.6 8.1 -0.4 3.9 -1.4 8.2 -2.1 9.6 -0.7 1.5 -1.6 4.6 -2 7 -0.4 2.4 -1.5 5.8 -2.5 7.5 -1.1 1.7 -1.9 4.1 -1.9 5.3 0 1.2 -0.9 3.9 -1.9 5.9 -1.1 2 -4.1 8 -6.6 13.2 -8 16.1 -10.3 19.6 -20.3 30.7 -11 12.3 -19.4 18.7 -33.2 25.3 -3.6 1.7 -7.7 3.8 -9.2 4.6 -1.4 0.8 -3.4 1.4 -4.3 1.4 -0.9 0 -3.5 0.8 -5.8 1.9 -2.3 1 -7.8 2.2 -12.2 2.6 -4.4 0.4 -9.5 1.3 -11.4 2.1 -4.9 2 -34.1 1.9 -44.1 -0.2 -4.1 -0.8 -10.1 -1.6 -13.2 -1.7 -5.7 -0.2 -5.7 -0.2 -14.7 9.2 -5 5.2 -9.4 10.4 -9.7 11.5 -0.4 1.1 -2.5 3.9 -4.8 6.2 -3.6 3.7 -6.4 7.3 -11.6 15 -0.8 1.2 -3.9 5.7 -6.8 9.9 -2.8 4.2 -5.5 8.7 -5.8 10 -0.3 1.4 -1.2 2.9 -1.9 3.5 -0.8 0.6 -1.7 2.5 -2 4.1 -0.4 1.7 -1.3 3.3 -2 3.5 -0.8 0.3 -1.8 1.8 -2.4 3.2 -0.6 1.5 -1.5 3.4 -2 4.2 -0.6 0.8 -2.2 4.2 -3.6 7.5 -1.4 3.3 -3.4 7.8 -4.4 10 -1.1 2.2 -2.8 6.1 -4 8.6 -1.2 2.5 -2.1 5.2 -2.1 6 0 0.8 -0.7 2.7 -1.5 4.3 -2.4 4.6 -3.6 10.8 -2.3 12.3 0.8 1 16 1.3 75 1.3 49 0 74.6 0.3 75.9 1 2.1 1.2 2.5 4 0.7 5.8 -1.7 1.7 -627.9 1.7 -629.6 0z m70.3 -41.8 c1.7 -1.1 4.2 -2 5.6 -2 1.5 0 3.2 -0.6 3.8 -1.4 0.7 -0.8 2.3 -1.7 3.6 -2 3.8 -1 15.1 -9 20 -14.2 5.6 -6.1 12 -19.1 12.9 -26.4 0.4 -3 1.4 -7.5 2.2 -10.1 1.2 -3.5 1.3 -6.5 0.7 -13.5 -0.8 -8.9 -0.8 -8.9 -6.5 -9.2 -4.2 -0.2 -6.6 0.2 -9.5 1.8 -2.1 1.1 -4.5 2 -5.5 2 -1.7 0 -16.1 7.2 -18.8 9.4 -6.4 5.2 -15.9 15.9 -16.5 18.5 -0.3 1.6 -1.3 3.5 -2.1 4.2 -0.8 0.6 -1.4 2.1 -1.4 3.3 -0.1 1.1 -0.9 3.9 -2 6.1 -2.1 4.4 -2.8 16.9 -0.9 18 1.3 0.9 6.9 -5.3 6.9 -7.6 0 -1 0.8 -2.4 1.9 -3.1 1 -0.7 2.5 -2.6 3.4 -4.3 0.8 -1.6 2.9 -4.5 4.6 -6.4 1.7 -1.9 3.1 -3.7 3.1 -4.1 0 -1.1 15.4 -16.5 22 -21.9 3.6 -3 6.7 -5.7 7 -6.1 0.3 -0.5 1.8 0.2 3.4 1.5 3.2 2.6 3 5.7 -0.7 7.7 -3.5 1.8 -23.4 21.8 -27.3 27.3 -6.7 9.7 -10.2 14.5 -11.8 16.1 -0.9 0.8 -1.6 2.4 -1.6 3.5 0 1.1 -0.7 2.2 -1.5 2.5 -1.8 0.7 -5.8 9.3 -5.1 11.1 0.8 2 6.7 1.5 10.1 -0.7z m207 -44.4 c1.1 -0.7 4.1 -1.6 6.6 -2 2.6 -0.4 6.4 -1.6 8.5 -2.6 2.1 -1.1 4.5 -2 5.4 -2.1 0.8 0 3.8 -1.4 6.5 -3 2.8 -1.6 6.4 -3.6 8.1 -4.4 1.7 -0.7 3.6 -2.1 4.4 -2.9 0.7 -0.9 1.7 -1.6 2.2 -1.6 1.1 0 10 -7.1 13.7 -11 4.8 -5 11.1 -13.1 11.1 -14.4 0 -0.7 0.9 -2.1 2 -3.1 1.1 -1 2 -2.3 2 -2.9 0 -0.6 0.8 -2.7 1.9 -4.6 1 -1.9 2.1 -5.3 2.5 -7.4 0.4 -2.2 1.4 -4.9 2.2 -6 0.8 -1.1 1.4 -3 1.4 -4.1 0 -1.2 0.9 -5.5 2 -9.6 1.6 -6 2 -10.7 2 -24.5 0 -20.6 -0.3 -21.5 -7.4 -19.6 -2.6 0.6 -6.6 1.2 -9.1 1.2 -2.4 0 -6.7 0.9 -9.5 2 -2.8 1.1 -5.9 2 -6.8 2 -1 0 -3.5 0.9 -5.7 2 -2.2 1.1 -4.7 2 -5.6 2 -0.9 0 -2.8 0.9 -4.2 2 -1.4 1.1 -3.1 2 -3.9 2 -0.8 0 -2.9 1.1 -4.8 2.5 -1.9 1.4 -3.8 2.5 -4.3 2.5 -1.7 0 -14.1 10.6 -21.4 18.4 -4.9 5.3 -8.3 10.1 -11.1 15.8 -5.6 11.4 -8.2 18.2 -8.2 21.2 0 1.4 -0.8 4.5 -1.7 6.8 -2.3 5.8 -2.6 30.3 -0.4 30.3 1.5 0 3.9 -3.4 6.5 -9.2 0.8 -1.8 1.9 -3.3 2.5 -3.3 0.5 0 1.2 -1.3 1.6 -3 0.4 -1.6 1.2 -3.3 1.9 -3.7 0.7 -0.5 3.5 -4.3 6.4 -8.6 2.8 -4.3 6.7 -9.4 8.7 -11.5 1.9 -2 3.5 -4.3 3.5 -5 0 -1.7 31.6 -33.3 36.5 -36.5 2.2 -1.4 6.3 -4.6 9 -7.1 5 -4.5 5 -4.5 7.6 -1.8 2.5 2.7 2.5 2.7 0.6 5.6 -1.1 1.5 -5.4 5.6 -9.6 8.9 -10.4 8.4 -33.6 31.2 -37.4 36.8 -1.8 2.6 -4.7 6.4 -6.5 8.5 -4.7 5.6 -16.1 23.2 -16.8 25.9 -0.3 1.3 -1.4 3.1 -2.5 4.1 -1 0.9 -1.9 2.3 -1.9 2.9 0 0.7 -0.6 1.8 -1.4 2.4 -0.8 0.7 -1.7 2.4 -2.1 3.9 -0.4 1.5 -1.3 3.4 -2.2 4.4 -1.3 1.4 -1.3 1.7 0.4 2.7 2.3 1.5 14 0.5 16.8 -1.3z m339 -56.7 c2.8 -0.6 8.2 -1.4 12 -2 3.9 -0.5 8.1 -1.5 9.5 -2.3 1.4 -0.7 4.3 -1.7 6.5 -2.1 2.2 -0.4 5.1 -1.3 6.5 -2.1 1.4 -0.8 3.6 -1.9 5 -2.4 15.4 -6.6 33.9 -24.3 44.7 -43 4.5 -7.6 10.3 -19.5 10.3 -20.9 0 -0.6 0.9 -2.8 2 -4.8 1.1 -2.1 2 -4.4 2 -5.1 0 -0.7 0.6 -2.3 1.4 -3.5 0.8 -1.2 1.7 -4.2 2.1 -6.7 0.4 -2.5 1.4 -5.7 2.1 -7.2 0.8 -1.5 1.4 -4.5 1.4 -6.7 0 -7.2 -1.4 -7.5 -30 -7.9 -13.5 -0.2 -27 0.1 -30 0.6 -12.9 2.3 -17.7 3.5 -21.5 5.2 -2.2 1 -5.6 2.1 -7.6 2.4 -2.1 0.4 -4.2 1.3 -4.9 2.1 -0.7 0.8 -1.8 1.5 -2.5 1.5 -0.7 0 -2.3 0.8 -3.6 1.9 -1.3 1 -3.6 2.2 -5 2.7 -4.2 1.4 -24.9 19.4 -24.9 21.6 0 0.5 -1.8 2.8 -4 5 -2.2 2.3 -4 4.7 -4 5.3 0 0.5 -1.8 3.6 -4 6.8 -2.2 3.1 -4 6.2 -4 6.8 0 0.5 -0.9 2.8 -2 5 -1.1 2.1 -2.9 5.7 -4 7.8 -1.1 2.2 -2 4.8 -2 5.8 0 1 -1.2 4.1 -2.5 6.8 -2.8 5.7 -3.2 9 -1 9.9 1.1 0.4 4.5 -2.4 10.5 -8.3 4.9 -4.9 11.1 -10.4 13.8 -12.2 2.7 -1.9 6.7 -4.9 8.8 -6.7 8.2 -6.8 15.3 -12.2 16.2 -12.2 0.5 0 1.7 -0.9 2.7 -2 1 -1.1 2.4 -2 3 -2 0.7 0 2.4 -0.9 3.8 -2 2.8 -2.2 13.8 -8.4 17.7 -10 1.4 -0.5 3.2 -1.5 4 -2 0.8 -0.6 2.9 -1.7 4.6 -2.5 1.7 -0.7 3.6 -2.1 4.4 -2.9 0.7 -0.9 2.2 -1.6 3.4 -1.6 1.1 0 3.5 -0.9 5.1 -2 1.7 -1.1 3.7 -2 4.6 -2 0.9 0 2.2 -0.7 2.9 -1.5 0.7 -0.8 2.8 -1.7 4.9 -2 2 -0.4 5.3 -1.6 7.4 -2.7 4.4 -2.3 8.1 -1.8 9.7 1.3 1.5 2.8 0.6 4.9 -2.2 4.9 -1.3 0 -3.6 0.9 -5.3 2 -1.6 1.1 -3.8 2 -4.7 2 -0.9 0 -5.5 1.8 -10.2 4 -4.7 2.2 -9.1 4 -9.9 4 -0.8 0 -2 0.7 -2.7 1.4 -0.6 0.8 -2.7 2 -4.5 2.6 -1.8 0.6 -3.6 1.7 -3.9 2.5 -0.3 0.8 -1.4 1.5 -2.4 1.5 -1.1 0 -3.1 0.9 -4.5 2 -1.4 1.1 -3.1 2 -3.8 2 -0.6 0 -3.7 1.7 -6.8 3.8 -3.1 2 -6.3 4.2 -7.2 4.7 -7.7 4.6 -27.7 19.4 -33.8 24.9 -11.8 10.6 -26.1 25.2 -25.9 26.5 0.9 4.6 35.6 7.2 52.3 4z m-111.1 -16.2 c5.7 -8.9 17.6 -33 17.6 -35.6 0 -1 1 -4 2.2 -6.7 2 -4.5 2.2 -6.6 2.2 -24.9 0.1 -19.1 0 -20.2 -2.1 -23.6 -1.3 -2 -2.3 -4.6 -2.3 -5.7 0 -2.6 -8.7 -19.4 -10.6 -20.5 -0.8 -0.4 -1.4 -1.4 -1.4 -2.2 0 -4.3 -27.5 -33.4 -31.6 -33.5 -2.2 0 -7.7 5.9 -10.2 11 -2.2 4.3 -3.8 6.9 -5.5 8.7 -0.8 1 -1.8 3 -2.2 4.5 -0.4 1.5 -1.3 3.2 -2.1 3.9 -0.8 0.6 -1.4 2.1 -1.4 3.3 0 1.1 -1.1 4.4 -2.5 7.1 -1.3 2.8 -2.5 5.7 -2.5 6.5 0 0.9 -0.6 2.5 -1.4 3.6 -4.1 5.8 -3.8 45.1 0.4 51.9 1.1 1.8 2 3.9 2 4.8 0 1.4 2.5 6.4 7 14.5 3 5.2 5.5 8.8 12.3 17.4 6.3 7.9 9.7 10.5 11.9 9.2 1.3 -0.8 0.9 -5.3 -0.7 -7.8 -0.8 -1.2 -1.8 -4.5 -2.1 -7.2 -0.3 -2.7 -1.2 -6.7 -2 -8.9 -0.7 -2.2 -1.8 -8.8 -2.3 -14.6 -0.6 -5.8 -1.5 -11.8 -2.1 -13.3 -1.7 -4.6 -2.5 -34.3 -1.1 -44.8 1.8 -13.9 3.2 -20.7 4.6 -21.8 0.9 -0.7 2.1 -0.7 4 0 2.7 1 2.8 1.2 2.2 7.3 -0.4 3.4 -1.1 9.4 -1.6 13.2 -1.5 10.3 -1.3 27.8 0.4 39.1 0.8 5.4 1.5 12.2 1.5 15 0 2.8 0.7 7.1 1.6 9.5 0.8 2.4 1.9 7.8 2.4 11.9 0.5 4.1 1.6 8.9 2.4 10.5 0.9 1.7 1.6 4.1 1.6 5.4 0 1.3 0.9 4.2 1.9 6.5 1.1 2.3 2.5 5.6 3.1 7.3 1 2.8 1.5 3.1 3.1 2.2 1.1 -0.5 2.5 -2 3.3 -3.2z"/>
 </g>
</svg>